# Blender v2.79 (sub 0) OBJ File: 'LVL1.blend'
# www.blender.org
mtllib LVL1.mtl
o Model_Plane
v -1.196867 0.000000 1.516775
v 1.547536 0.000000 1.227627
v -1.621361 0.000000 -1.369125
v 0.938479 0.000000 -1.818228
v -1.922813 0.000000 -0.376958
v -1.855140 0.000000 0.664425
v -1.547536 0.000000 1.281315
v 0.016775 0.000000 1.732098
v 0.492167 0.000000 1.621361
v 1.022928 0.000000 1.498319
v 2.033551 0.000000 0.210852
v 2.015094 0.000000 -0.602905
v 1.922813 0.000000 -1.293619
v 0.186244 0.000000 -1.799771
v -0.504471 0.000000 -1.830532
v -1.109057 0.000000 -1.676730
v -0.500000 0.000000 0.500000
v -0.500000 0.000000 0.000000
v -0.500000 0.000000 -0.500000
v 0.000000 0.000000 0.500000
v 0.000000 0.000000 0.000000
v 0.000000 0.000000 -0.500000
v 0.500000 0.000000 0.500000
v 0.500000 0.000000 0.000000
v 0.500000 0.000000 -0.500000
v -1.621361 2.000000 -1.369125
v 0.938479 2.000000 -1.818228
v -1.922813 2.000000 -0.376958
v 0.186244 2.000000 -1.799771
v -0.504471 2.000000 -1.830532
v -1.109057 2.000000 -1.676730
v -1.196867 2.000000 1.516775
v 1.547536 2.000000 1.227627
v -1.855140 2.000000 0.664425
v -1.547536 2.000000 1.281315
v 0.016775 2.000000 1.732098
v 0.492167 2.000000 1.621361
v 1.022928 2.000000 1.498319
v 2.033551 2.000000 0.210852
v 2.015094 2.000000 -0.602905
v 1.922813 2.000000 -1.293619
v -1.607823 1.984220 -1.358396
v 0.930982 1.984220 -1.803808
v -1.906798 1.984220 -0.374382
v 0.184928 1.984220 -1.785504
v -0.500111 1.984220 -1.816011
v -1.099729 1.984220 -1.663473
v -1.186817 1.984220 1.503790
v 1.535034 1.984220 1.217018
v -1.839681 1.984220 0.658444
v -1.534605 1.984220 1.270265
v 0.016852 1.984220 1.717344
v 0.488338 1.984220 1.607517
v 1.014737 1.984220 1.485486
v 2.017056 1.984220 0.208598
v 1.998751 1.984220 -0.598472
v 1.907228 1.984220 -1.283511
vt 0.956314 1.024724
vt 2.534589 2.312512
vt 1.208197 2.743357
vt 0.286155 2.556333
vt -1.999522 0.344058
vt -0.274780 0.806304
vt -1.281606 2.121939
vt -1.845114 1.631352
vt 0.340767 0.915514
vt -0.570898 2.443337
vt -0.692186 -1.828745
vt 0.848952 -1.828745
vt -0.056361 -0.424790
vt -1.175322 -1.615464
vt -0.165570 0.190757
vt -1.688752 -0.923202
vt 1.410017 -1.588582
vt 0.559186 -0.315580
vt 0.449977 0.299967
vt 2.036558 -1.321178
vt 1.174734 -0.206371
vt 1.065524 0.409176
vt 2.623276 -0.873346
vt 2.999522 0.484554
vt 2.799061 1.482333
vt 5.500000 0.980122
vt 5.500000 0.044680
vt -4.500000 0.044681
vt -4.500000 0.980123
vt 5.500000 0.980122
vt 5.500000 0.044680
vt -4.500000 0.044681
vt -4.500000 0.980123
vt 5.500000 0.980122
vt 5.500000 0.044680
vt -4.500000 0.044681
vt -4.500000 0.980123
vt 5.500000 0.980122
vt 5.500000 0.044680
vt -4.500000 0.044681
vt -4.500000 0.980123
vt 5.500000 0.980122
vt 5.500000 0.044680
vt -4.500000 0.044681
vt -4.500000 0.980123
vt 5.500000 0.980122
vt 5.500000 0.044680
vt -4.500000 0.044681
vt -4.500000 0.980123
vt 5.500000 0.980122
vt 5.500000 0.044680
vt -4.500000 0.044681
vt -4.500000 0.980123
vt 5.500000 0.980122
vt 5.500000 0.044680
vt -4.500000 0.044681
vt -4.500000 0.980123
vt 5.500000 0.980122
vt 5.500000 0.044680
vt -4.500000 0.044681
vt -4.500000 0.980123
vt 5.500000 0.980122
vt 5.500000 0.044680
vt -4.500000 0.044681
vt -4.500000 0.980123
vt 5.500000 0.980122
vt 5.500000 0.044680
vt -4.500000 0.044681
vt -4.500000 0.980123
vt 5.500000 0.980122
vt 5.500000 0.044680
vt -4.500000 0.044681
vt -4.500000 0.980123
vt 5.500000 0.980122
vt 5.500000 0.044680
vt -4.500000 0.044681
vt -4.500000 0.980123
vt 5.500000 0.980122
vt 5.500000 0.044680
vt -4.500000 0.044681
vt -4.500000 0.980123
vt 5.500000 0.980122
vt 5.500000 0.044680
vt -4.500000 0.044681
vt -4.500000 0.980123
vt 5.500000 0.980122
vt 5.500000 0.044680
vt -4.500000 0.044681
vt -4.500000 0.980123
vt 2.739663 -1.500000
vt 4.251126 -1.500000
vt 4.251126 3.500000
vt 2.739663 3.500000
vt 1.454700 -1.500000
vt 3.935118 -1.500000
vt 3.935118 3.500000
vt 1.454700 3.500000
vt 0.977913 -1.500000
vt 2.858502 -1.500000
vt 2.858502 3.500000
vt 0.977913 3.500000
vt 1.458902 -1.500000
vt 1.458902 3.500000
vt -0.748874 -1.500000
vt -0.748874 3.500000
vt -1.148759 -1.500000
vt -1.148759 3.500000
vt -1.253648 -1.500000
vt -2.980434 -1.500000
vt -2.980434 3.500000
vt -1.253648 3.500000
vt -1.930377 -1.500000
vt -3.257278 -1.500000
vt -3.257278 3.500000
vt -1.930377 3.500000
vt 2.309017 -1.500000
vt 3.851241 -1.500000
vt 3.851241 3.500000
vt 2.309017 3.500000
vt -0.014825 -1.500000
vt -2.556764 -1.500000
vt -2.556764 3.500000
vt -0.014825 3.500000
vt 2.520137 -1.500000
vt 1.643465 -1.500000
vt 1.643465 3.500000
vt 2.520137 3.500000
vt 0.554242 -1.500000
vt -2.479863 -1.500000
vt -2.479863 3.500000
vt 0.554242 3.500000
vt 2.019566 -1.500000
vt 2.019566 3.500000
vt -0.618856 -1.500000
vt -0.618856 3.500000
vt 1.742722 -1.500000
vt 1.742722 3.500000
vt 0.319337 -1.500000
vt 0.319337 3.500000
vt -2.141498 3.500000
vt -2.141498 -1.500000
vn 0.0000 1.0000 0.0000
vn -0.0240 0.3519 -0.9357
vn -0.0218 0.6827 -0.7303
vn 0.2457 0.7044 -0.6659
vn 0.3556 0.3676 -0.8593
vn 0.7314 0.3728 0.5710
vn 0.5325 0.7383 0.4139
vn 0.2617 0.7068 0.6572
vn 0.3616 0.3719 0.8549
vn -0.2111 0.3607 -0.9084
vn -0.1675 0.6728 -0.7206
vn 0.9212 0.3738 0.1076
vn 0.6934 0.7164 0.0772
vn -0.3256 0.3598 -0.8743
vn -0.2425 0.6848 -0.6872
vn 0.8937 0.3761 -0.2445
vn 0.6700 0.7219 -0.1729
vn -0.0088 0.3622 0.9320
vn -0.0083 0.6710 0.7414
vn -0.1400 0.7033 0.6969
vn -0.2233 0.3633 0.9045
vn -0.9069 0.3748 -0.1923
vn -0.6724 0.7245 -0.1512
vn -0.4925 0.7194 -0.4897
vn -0.6702 0.3651 -0.6461
vn 0.0995 0.3584 0.9282
vn 0.0646 0.6853 0.7253
vn -0.9178 0.3901 0.0732
vn -0.6866 0.7252 0.0501
vn 0.5100 0.7331 -0.4500
vn 0.6958 0.3778 -0.6108
vn -0.7610 0.3793 0.5264
vn -0.5282 0.7618 0.3750
vn 0.2835 0.6758 0.6803
vn 0.0753 0.6756 0.7334
vn 0.7384 0.6689 0.0853
vn 0.6094 0.6344 0.4754
vn -0.0070 0.7150 0.6991
vn -0.1743 0.6541 0.7360
vn 0.7208 0.6652 -0.1946
vn -0.6462 0.6173 0.4487
vn -0.7169 0.6949 0.0558
vn -0.2528 0.6802 -0.6880
vn -0.1600 0.7072 -0.6886
vn 0.5683 0.6538 -0.4995
vn -0.7359 0.6584 -0.1581
vn -0.5504 0.6419 -0.5339
vn 0.2799 0.6635 -0.6938
vn -0.0199 0.6645 -0.7469
usemtl None
s off
f 25/1/1 13/2/1 4/3/1 14/4/1
f 5/5/1 19/6/1 16/7/1 3/8/1
f 19/6/1 22/9/1 15/10/1 16/7/1
f 22/9/1 25/1/1 14/4/1 15/10/1
f 1/11/1 8/12/1 17/13/1 7/14/1
f 7/14/1 17/13/1 18/15/1 6/16/1
f 6/16/1 18/15/1 19/6/1 5/5/1
f 8/12/1 9/17/1 20/18/1 17/13/1
f 17/13/1 20/18/1 21/19/1 18/15/1
f 18/15/1 21/19/1 22/9/1 19/6/1
f 9/17/1 10/20/1 23/21/1 20/18/1
f 20/18/1 23/21/1 24/22/1 21/19/1
f 21/19/1 24/22/1 25/1/1 22/9/1
f 10/20/1 2/23/1 11/24/1 23/21/1
f 23/21/1 11/24/1 12/25/1 24/22/1
f 24/22/1 12/25/1 13/2/1 25/1/1
usemtl None_GrassOff.png
s 1
f 36/26/2 52/27/3 48/28/4 32/29/5
f 26/30/6 42/31/7 47/32/8 31/33/9
f 37/34/10 53/35/11 52/36/3 36/37/2
f 28/38/12 44/39/13 42/40/7 26/41/6
f 38/42/14 54/43/15 53/44/11 37/45/10
f 34/46/16 50/47/17 44/48/13 28/49/12
f 29/50/18 45/51/19 43/52/20 27/53/21
f 39/54/22 55/55/23 49/56/24 33/57/25
f 30/58/26 46/59/27 45/60/19 29/61/18
f 40/62/28 56/63/29 55/64/23 39/65/22
f 32/66/5 48/67/4 51/68/30 35/69/31
f 31/70/9 47/71/8 46/72/27 30/73/26
f 41/74/32 57/75/33 56/76/29 40/77/28
f 35/78/31 51/79/30 50/80/17 34/81/16
f 27/82/21 43/83/20 57/84/33 41/85/32
f 33/86/25 49/87/24 54/88/15 38/89/14
usemtl None_Rocks.png
f 16/90/34 15/91/35 30/92/26 31/93/9
f 5/94/36 3/95/37 26/96/6 28/97/12
f 14/98/38 4/99/39 27/100/21 29/101/18
f 3/102/37 16/90/34 31/93/9 26/103/6
f 15/104/35 14/98/38 29/101/18 30/105/26
f 6/106/40 5/94/36 28/97/12 34/107/16
f 13/108/41 12/109/42 40/110/28 41/111/32
f 10/112/43 9/113/44 37/114/10 38/115/14
f 7/116/45 6/117/40 34/118/16 35/119/31
f 11/120/46 2/121/47 33/122/25 39/123/22
f 1/124/48 7/125/45 35/126/31 32/127/5
f 8/128/49 1/129/48 32/130/5 36/131/2
f 12/132/42 11/120/46 39/123/22 40/133/28
f 2/134/47 10/112/43 38/115/14 33/135/25
f 9/136/44 8/128/49 36/131/2 37/137/10
f 13/138/41 41/139/32 27/140/21 4/141/39
