# Blender v2.78 (sub 0) OBJ File: ''
# www.blender.org
o Sphere
v 0.000000 0.923880 -0.382683
v -0.000000 1.000000 -0.000000
v 0.270598 0.923880 -0.270598
v 0.500000 0.707107 -0.500000
v 0.653281 0.382683 -0.653282
v 0.707107 -0.000000 -0.707107
v 0.653281 -0.382684 -0.653282
v 0.500000 -0.707107 -0.500000
v 0.270598 -0.923880 -0.270598
v 0.382683 0.923880 -0.000000
v 0.707107 0.707107 -0.000000
v 0.923879 0.382683 -0.000000
v 1.000000 -0.000000 -0.000000
v 0.923879 -0.382684 -0.000000
v 0.707107 -0.707107 -0.000000
v 0.382683 -0.923880 -0.000000
v 0.270598 0.923880 0.270598
v 0.500000 0.707107 0.500000
v 0.653281 0.382683 0.653281
v 0.707107 -0.000000 0.707106
v 0.653281 -0.382684 0.653281
v 0.500000 -0.707107 0.500000
v 0.270598 -0.923880 0.270598
v 0.000000 0.923880 0.382683
v 0.000000 0.707107 0.707106
v 0.000000 0.382683 0.923879
v 0.000000 -0.000000 1.000000
v 0.000000 -0.382684 0.923879
v 0.000000 -0.707107 0.707106
v 0.000000 -0.923880 0.382683
v -0.270598 0.923880 0.270598
v -0.500000 0.707107 0.500000
v -0.653281 0.382683 0.653281
v -0.707107 -0.000000 0.707106
v -0.653281 -0.382684 0.653281
v -0.500000 -0.707107 0.500000
v -0.270598 -0.923880 0.270598
v 0.000000 -1.000000 -0.000000
v -0.382683 0.923880 -0.000000
v -0.707107 0.707107 -0.000000
v -0.923879 0.382683 -0.000000
v -1.000000 -0.000000 -0.000000
v -0.923879 -0.382684 -0.000000
v -0.707107 -0.707107 -0.000000
v -0.382683 -0.923880 -0.000000
v -0.270598 0.923880 -0.270598
v -0.500000 0.707107 -0.500000
v -0.653281 0.382683 -0.653281
v -0.707107 -0.000000 -0.707107
v -0.653281 -0.382684 -0.653281
v -0.500000 -0.707107 -0.500000
v -0.270598 -0.923880 -0.270598
v -0.000000 0.707107 -0.707107
v -0.000000 0.382683 -0.923879
v 0.000000 -0.000000 -1.000000
v -0.000000 -0.382684 -0.923879
v -0.000000 -0.707107 -0.707107
v -0.000000 -0.923880 -0.382683
vt 0.5688 0.7185
vt 0.5282 0.8297
vt 0.4598 0.6995
vt 0.4872 0.5813
vt 0.4472 0.8992
vt 0.3456 0.8721
vt 0.4184 0.8051
vt 0.7231 0.1279
vt 0.6666 0.2251
vt 0.6312 0.1433
vt 0.6361 0.3441
vt 0.6143 0.4693
vt 0.5359 0.3395
vt 0.5709 0.2280
vt 0.5938 0.5956
vt 0.5106 0.4596
vt 0.4403 0.2118
vt 0.4846 0.0908
vt 0.4071 0.4779
vt 0.4206 0.3436
vt 0.3775 0.7456
vt 0.3942 0.6125
vt 0.6225 0.0391
vt 0.2754 0.0455
vt 0.7894 0.0000
vt 0.3141 0.3184
vt 0.3045 0.1802
vt 0.3256 0.5960
vt 0.3202 0.4571
vt 0.3324 0.7346
vt 0.2163 0.4044
vt 0.1913 0.2815
vt 0.2586 0.6559
vt 0.2368 0.5307
vt 0.2891 0.7749
vt 0.8247 0.1008
vt 0.1507 0.1703
vt 0.0343 0.0000
vt 0.0696 0.1008
vt 0.7960 0.1949
vt 0.1097 0.4187
vt 0.0822 0.3005
vt 0.1584 0.6605
vt 0.1330 0.5404
vt 0.2537 0.8567
vt 0.1934 0.7720
vt 0.0409 0.1949
vt 0.0628 0.7882
vt 0.0431 0.6564
vt 0.2449 0.9609
vt 0.1070 0.9092
vt 0.0167 0.3875
vt 0.0000 0.2544
vt 0.0296 0.5221
vt 0.7551 0.2544
vt 0.7718 0.3875
vt 0.7031 0.4040
vt 0.7100 0.2654
vt 0.7846 0.5221
vt 0.7982 0.6564
vt 0.6917 0.6816
vt 0.6977 0.5429
vt 0.8178 0.7882
vt 0.8621 0.9092
vt 0.6529 0.9545
vt 0.6821 0.8198
vt 0.4118 1.0000
vt 1.0000 0.9609
vn 0.3256 0.5253 -0.7862
vn 0.0805 0.9776 -0.1945
vn 0.0805 -0.9776 -0.1945
vn 0.3256 -0.5253 -0.7862
vn 0.3764 0.1807 -0.9087
vn 0.2243 0.8103 -0.5414
vn 0.2243 -0.8103 -0.5414
vn 0.3764 -0.1807 -0.9087
vn 0.7862 -0.5253 -0.3256
vn 0.9087 0.1807 -0.3764
vn 0.5414 0.8103 -0.2243
vn 0.5414 -0.8103 -0.2243
vn 0.9087 -0.1807 -0.3764
vn 0.7862 0.5253 -0.3256
vn 0.1945 0.9776 -0.0805
vn 0.1945 -0.9776 -0.0805
vn 0.5414 -0.8103 0.2243
vn 0.9087 -0.1807 0.3764
vn 0.7862 0.5253 0.3256
vn 0.1945 0.9776 0.0805
vn 0.1945 -0.9776 0.0805
vn 0.7862 -0.5253 0.3256
vn 0.9087 0.1807 0.3764
vn 0.5414 0.8103 0.2243
vn 0.3764 -0.1807 0.9087
vn 0.3256 0.5253 0.7862
vn 0.0805 0.9776 0.1945
vn 0.0805 -0.9776 0.1945
vn 0.3256 -0.5253 0.7862
vn 0.3764 0.1807 0.9087
vn 0.2243 0.8103 0.5414
vn 0.2243 -0.8103 0.5414
vn -0.0805 -0.9776 0.1945
vn -0.3256 -0.5253 0.7862
vn -0.3764 0.1807 0.9087
vn -0.2243 0.8103 0.5414
vn -0.2243 -0.8103 0.5414
vn -0.3764 -0.1807 0.9087
vn -0.3256 0.5253 0.7862
vn -0.0805 0.9776 0.1945
vn -0.9087 0.1807 0.3764
vn -0.5414 0.8103 0.2243
vn -0.5414 -0.8103 0.2243
vn -0.9087 -0.1807 0.3764
vn -0.7862 0.5253 0.3256
vn -0.1945 0.9776 0.0805
vn -0.1945 -0.9776 0.0805
vn -0.7862 -0.5253 0.3256
vn -0.5414 -0.8103 -0.2243
vn -0.9087 -0.1807 -0.3764
vn -0.7862 0.5253 -0.3256
vn -0.1945 0.9776 -0.0805
vn -0.1945 -0.9776 -0.0805
vn -0.7862 -0.5253 -0.3256
vn -0.9087 0.1807 -0.3764
vn -0.5414 0.8103 -0.2243
vn -0.3256 0.5253 -0.7862
vn -0.0805 0.9776 -0.1945
vn -0.0805 -0.9776 -0.1945
vn -0.3256 -0.5253 -0.7862
vn -0.3764 0.1807 -0.9087
vn -0.2243 0.8103 -0.5414
vn -0.2243 -0.8103 -0.5414
vn -0.3764 -0.1807 -0.9087
s off
f 54/1/1 53/2/1 4/3/1 5/4/1
f 1/5/2 2/6/2 3/7/2
f 38/8/3 58/9/3 9/10/3
f 57/11/4 56/12/4 7/13/4 8/14/4
f 55/15/5 54/1/5 5/4/5 6/16/5
f 53/2/6 1/5/6 3/7/6 4/3/6
f 58/9/7 57/11/7 8/14/7 9/10/7
f 56/12/8 55/15/8 6/16/8 7/13/8
f 8/14/9 7/13/9 14/17/9 15/18/9
f 6/16/10 5/4/10 12/19/10 13/20/10
f 4/3/11 3/7/11 10/21/11 11/22/11
f 9/10/12 8/14/12 15/18/12 16/23/12
f 7/13/13 6/16/13 13/20/13 14/17/13
f 5/4/14 4/3/14 11/22/14 12/19/14
f 3/7/15 2/6/15 10/21/15
f 38/8/16 9/10/16 16/23/16
f 16/23/17 15/18/17 22/24/17 23/25/17
f 14/17/18 13/20/18 20/26/18 21/27/18
f 12/19/19 11/22/19 18/28/19 19/29/19
f 10/21/20 2/6/20 17/30/20
f 38/8/21 16/23/21 23/25/21
f 15/18/22 14/17/22 21/27/22 22/24/22
f 13/20/23 12/19/23 19/29/23 20/26/23
f 11/22/24 10/21/24 17/30/24 18/28/24
f 21/27/25 20/26/25 27/31/25 28/32/25
f 19/29/26 18/28/26 25/33/26 26/34/26
f 17/30/27 2/6/27 24/35/27
f 38/8/28 23/25/28 30/36/28
f 22/24/29 21/27/29 28/32/29 29/37/29
f 20/26/30 19/29/30 26/34/30 27/31/30
f 18/28/31 17/30/31 24/35/31 25/33/31
f 23/38/32 22/24/32 29/37/32 30/39/32
f 38/8/33 30/36/33 37/40/33
f 29/37/34 28/32/34 35/41/34 36/42/34
f 27/31/35 26/34/35 33/43/35 34/44/35
f 25/33/36 24/35/36 31/45/36 32/46/36
f 30/39/37 29/37/37 36/42/37 37/47/37
f 28/32/38 27/31/38 34/44/38 35/41/38
f 26/34/39 25/33/39 32/46/39 33/43/39
f 24/35/40 2/6/40 31/45/40
f 34/44/41 33/43/41 41/48/41 42/49/41
f 32/46/42 31/45/42 39/50/42 40/51/42
f 37/47/43 36/42/43 44/52/43 45/53/43
f 35/41/44 34/44/44 42/49/44 43/54/44
f 33/43/45 32/46/45 40/51/45 41/48/45
f 31/45/46 2/6/46 39/50/46
f 38/8/47 37/40/47 45/55/47
f 36/42/48 35/41/48 43/54/48 44/52/48
f 45/55/49 44/56/49 51/57/49 52/58/49
f 43/59/50 42/60/50 49/61/50 50/62/50
f 41/63/51 40/64/51 47/65/51 48/66/51
f 39/50/52 2/6/52 46/67/52
f 38/8/53 45/55/53 52/58/53
f 44/56/54 43/59/54 50/62/54 51/57/54
f 42/60/55 41/63/55 48/66/55 49/61/55
f 40/64/56 39/68/56 46/67/56 47/65/56
f 48/66/57 47/65/57 53/2/57 54/1/57
f 46/67/58 2/6/58 1/5/58
f 38/8/59 52/58/59 58/9/59
f 51/57/60 50/62/60 56/12/60 57/11/60
f 49/61/61 48/66/61 54/1/61 55/15/61
f 47/65/62 46/67/62 1/5/62 53/2/62
f 52/58/63 51/57/63 57/11/63 58/9/63
f 50/62/64 49/61/64 55/15/64 56/12/64
