# Blender v2.79 (sub 0) OBJ File: 'RockWall.blend'
# www.blender.org
mtllib RockWall.mtl
o Plane
v 8.000000 -8.000000 -0.000002
v -8.000000 -8.000000 0.000003
v 8.000000 8.000000 -0.000003
v -8.000000 8.000000 0.000002
v -8.000000 7.457265 -0.723644
v 8.000000 7.457265 -0.723649
v 8.000000 6.222222 -0.000003
v 8.000000 4.444445 -0.000003
v 8.000000 2.666667 -0.350003
v 8.000000 0.888889 -0.100003
v 8.000000 -0.888889 0.249997
v 8.000000 -2.666667 -0.000002
v 8.000000 -4.444445 -0.350002
v 8.000000 -6.222222 -0.350002
v 6.222222 -8.000000 0.092274
v 4.444445 -8.000000 -0.000001
v 2.666667 -8.000000 0.381783
v 0.888889 -8.000000 0.000000
v -0.888889 -8.000000 -0.444324
v -2.666667 -8.000000 0.000001
v -4.444445 -8.000000 -0.560731
v -6.222222 -8.000000 -0.349998
v -8.000000 -6.222222 -0.349997
v -8.000000 -4.444445 -0.349997
v -8.000000 -2.666667 0.000003
v -8.000000 -0.888889 0.250003
v -8.000000 0.888889 -0.099997
v -8.000000 2.666667 -0.349997
v -8.000000 4.444445 0.000002
v -8.000000 6.222222 0.000002
v -6.222222 8.000000 0.000002
v -4.444445 8.000000 0.000001
v -2.666667 8.000000 0.000001
v -0.888889 8.000000 -0.000000
v 0.888889 8.000000 -0.000001
v 2.666667 8.000000 -0.000001
v 4.444445 8.000000 -0.000002
v 6.222222 8.000000 -0.000002
v 6.222222 -6.222222 -0.350002
v 6.222222 -4.444445 -0.350002
v 6.222222 -2.666667 -0.350002
v 6.222222 -0.888889 -0.100002
v 6.222222 0.888889 -0.100002
v 6.222222 2.666667 -0.350002
v 6.222222 4.444445 -0.000002
v 6.222222 6.222222 -0.000002
v 4.444445 -6.222222 -0.000001
v 4.444445 -4.444445 -0.100001
v 4.444445 -2.666667 -0.100001
v 4.444445 -0.888889 -0.350001
v 4.444445 0.888889 -0.350001
v 4.444445 2.666667 0.249998
v 4.444445 4.444445 -0.100002
v 4.444445 6.222222 -0.350002
v 2.666667 -6.222222 -0.000001
v 2.666667 -4.444445 0.249999
v 2.666667 -2.666667 0.249999
v 2.666667 -0.888889 -0.000001
v 2.666667 0.888889 -0.350001
v 2.666667 2.666667 -0.100001
v 2.666667 4.444445 -0.289254
v 2.666667 6.222222 -0.350001
v 0.888889 -6.222222 -0.350000
v 0.888889 -4.444445 -0.350000
v 0.888889 -2.666667 0.250000
v 0.888889 -0.888889 0.250000
v 0.888889 0.888889 -0.100000
v 0.888889 2.666667 -0.350000
v 0.888889 4.444445 -0.000000
v 0.888889 6.222222 -0.000001
v -0.888889 -6.222222 -0.349999
v -0.888889 -4.444445 -0.350000
v -0.888889 -2.666667 0.250000
v -0.888889 -0.888889 0.250000
v -0.888889 0.888889 0.473431
v -0.888889 2.666667 -0.350000
v -0.888889 4.444445 -0.350000
v -0.888889 6.222222 0.000000
v -2.666667 -6.222222 0.000001
v -2.666667 -4.444445 0.250001
v -2.666667 -2.666667 0.250001
v -2.666667 -0.888889 -0.349999
v -2.666667 0.888889 -0.349999
v -2.666667 2.666667 -0.349999
v -2.666667 4.444445 -0.099999
v -2.666667 6.222222 0.250001
v -4.444445 -6.222222 -0.349998
v -4.444445 -4.444445 0.250002
v -4.444445 -2.666667 0.250002
v -4.444445 -0.888889 -0.349999
v -4.444445 0.888889 -0.349999
v -4.444445 2.666667 0.000001
v -4.444445 4.444445 0.433799
v -4.444445 6.222222 0.250001
v -6.222222 -6.222222 -0.349998
v -6.222222 -4.444445 -0.349998
v -6.222222 -2.666667 0.000002
v -6.222222 -0.888889 0.250002
v -6.222222 0.888889 -0.099998
v -6.222222 2.666667 -0.349998
v -6.222222 4.444445 0.000002
v -6.222222 6.222222 0.000002
vt 0.000117 0.999883
vt 0.000117 0.957356
vt 0.925103 0.957355
vt 0.925103 0.999883
vt 0.839766 0.832844
vt 0.942582 0.832054
vt 0.943330 0.934816
vt 0.840569 0.935565
vt 0.013594 0.844146
vt 0.117003 0.841550
vt 0.119109 0.945121
vt 0.015927 0.947356
vt 0.221766 0.838930
vt 0.222479 0.943278
vt 0.322655 0.837292
vt 0.325682 0.941219
vt 0.426778 0.836614
vt 0.428487 0.939553
vt 0.530335 0.834442
vt 0.531575 0.938036
vt 0.634619 0.833336
vt 0.634745 0.937135
vt 0.736827 0.833112
vt 0.737968 0.936384
vt 0.000117 0.008798
vt 0.103333 0.007529
vt 0.103003 0.113166
vt 0.000404 0.113830
vt 0.104598 0.215880
vt 0.001379 0.216998
vt 0.105574 0.319216
vt 0.000481 0.322182
vt 0.106284 0.424546
vt 0.000117 0.426156
vt 0.107709 0.528601
vt 0.004805 0.530913
vt 0.110167 0.631850
vt 0.007225 0.635032
vt 0.114793 0.737531
vt 0.010750 0.740921
vt 0.206104 0.005983
vt 0.208317 0.109608
vt 0.209793 0.214317
vt 0.210656 0.319079
vt 0.211506 0.424429
vt 0.212295 0.528236
vt 0.215140 0.635161
vt 0.218463 0.736522
vt 0.311339 0.000117
vt 0.313888 0.107512
vt 0.315609 0.213691
vt 0.317157 0.316904
vt 0.316987 0.421378
vt 0.315770 0.526860
vt 0.318310 0.631159
vt 0.321299 0.734853
vt 0.416808 0.000934
vt 0.420914 0.105884
vt 0.422702 0.206914
vt 0.421107 0.315707
vt 0.421686 0.419750
vt 0.419991 0.525985
vt 0.422961 0.629692
vt 0.425069 0.734440
vt 0.523179 0.001854
vt 0.523835 0.105341
vt 0.523087 0.207095
vt 0.525882 0.314933
vt 0.525831 0.418637
vt 0.522423 0.517382
vt 0.526510 0.626893
vt 0.528384 0.729230
vt 0.629771 0.002391
vt 0.630318 0.106403
vt 0.630137 0.212270
vt 0.629633 0.315621
vt 0.632500 0.422740
vt 0.630743 0.523922
vt 0.629899 0.626422
vt 0.630951 0.729375
vt 0.737957 0.000217
vt 0.737002 0.104505
vt 0.732226 0.212716
vt 0.733658 0.314864
vt 0.732126 0.423172
vt 0.733647 0.524012
vt 0.734338 0.629054
vt 0.734961 0.732789
vt 0.841310 0.002346
vt 0.840276 0.105108
vt 0.839673 0.207490
vt 0.838283 0.312514
vt 0.838596 0.416237
vt 0.838025 0.521241
vt 0.838756 0.625095
vt 0.839022 0.730017
vt 0.945889 0.001424
vt 0.942909 0.105965
vt 0.942036 0.208442
vt 0.941235 0.312844
vt 0.941091 0.416433
vt 0.940992 0.520976
vt 0.941384 0.624695
vt 0.941874 0.729263
vn -0.0000 0.8000 -0.6000
vn 0.0649 -0.0302 -0.9974
vn 0.0000 0.0000 -1.0000
vn 0.0000 0.4472 -0.8944
vn 0.0350 -0.0350 -0.9987
vn 0.0558 0.0070 -0.9984
vn 0.0489 0.0489 -0.9976
vn 0.0691 0.0338 -0.9970
vn 0.0489 0.1457 -0.9881
vn -0.0555 0.0469 -0.9973
vn -0.0489 0.1457 -0.9881
vn -0.0445 0.0448 -0.9980
vn -0.0489 0.0489 -0.9976
vn -0.0280 0.0558 -0.9980
vn -0.0350 -0.0350 -0.9987
vn -0.0894 0.0066 -0.9959
vn -0.0350 -0.1047 -0.9939
vn 0.0281 -0.0539 -0.9981
vn 0.0350 -0.1047 -0.9939
vn -0.0253 -0.2174 -0.9757
vn -0.0486 -0.1705 -0.9841
vn -0.0662 -0.0923 -0.9935
vn -0.0127 -0.1093 -0.9939
vn -0.0524 0.0175 -0.9984
vn 0.0372 0.0589 -0.9976
vn 0.1456 0.1176 -0.9823
vn 0.1083 0.0104 -0.9940
vn 0.1457 0.0201 -0.9891
vn 0.0355 -0.0355 -0.9987
vn 0.0488 -0.1185 -0.9917
vn -0.0587 0.0381 -0.9975
vn 0.0000 0.0273 -0.9996
vn -0.0033 0.0312 -0.9995
vn 0.0000 0.0970 -0.9953
vn -0.0890 -0.1147 -0.9894
vn -0.1107 -0.0540 -0.9924
vn -0.1494 0.0034 -0.9888
vn -0.1322 -0.0349 -0.9906
vn -0.0372 -0.0589 -0.9976
vn 0.0108 0.0584 -0.9982
vn 0.0030 0.0448 -0.9990
vn 0.0479 -0.0771 -0.9958
vn 0.0463 -0.1538 -0.9870
vn 0.0658 -0.0500 -0.9966
vn 0.0322 0.0699 -0.9970
vn -0.0733 -0.0103 -0.9973
vn -0.1248 -0.1248 -0.9843
vn -0.0349 -0.0139 -0.9993
vn 0.0596 0.0328 -0.9977
vn 0.0030 -0.0523 -0.9986
vn 0.1621 -0.1365 -0.9773
vn 0.1458 -0.0498 -0.9880
vn 0.1059 0.1394 -0.9845
vn 0.0239 0.1051 -0.9942
vn -0.0916 -0.0739 -0.9930
vn -0.1134 -0.1318 -0.9847
vn -0.0168 -0.0367 -0.9992
vn 0.0013 0.0560 -0.9984
vn -0.0479 -0.0230 -0.9986
vn -0.0894 0.0057 -0.9960
vn -0.1059 0.1394 -0.9845
vn 0.0000 0.0819 -0.9966
vn 0.0981 -0.0355 -0.9945
vn 0.0717 -0.1207 -0.9901
vn 0.0244 -0.0868 -0.9959
vn -0.0029 0.1146 -0.9934
vn 0.0153 0.0428 -0.9990
vn -0.0344 0.0986 -0.9945
vn -0.0814 0.1178 -0.9897
vn 0.0000 -0.0819 -0.9966
vn 0.1365 -0.1080 -0.9847
vn 0.1266 -0.0165 -0.9918
vn -0.0465 0.0329 -0.9984
vn -0.1494 0.1248 -0.9809
vn 0.0944 0.0589 -0.9938
vn 0.1137 0.1279 -0.9852
vn 0.1230 0.1230 -0.9847
vn 0.0351 -0.0820 -0.9960
vn -0.0829 -0.1302 -0.9880
vn -0.0762 0.0075 -0.9970
vn -0.0241 0.1339 -0.9907
vn 0.0043 0.0987 -0.9951
vn -0.0785 -0.0193 -0.9967
vn 0.0019 0.0317 -0.9995
vn 0.0984 0.1142 -0.9886
vn 0.0352 0.0843 -0.9958
vn -0.0816 -0.0618 -0.9947
vn -0.0523 -0.1012 -0.9935
vn 0.0597 0.0735 -0.9955
vn 0.1017 0.0902 -0.9907
vn -0.0975 -0.0975 -0.9904
vn -0.0489 -0.0489 -0.9976
vn 0.0000 0.1663 -0.9861
vn 0.0000 -0.0273 -0.9996
vn 0.0000 -0.1663 -0.9861
usemtl Material.001
s off
f 3/1/1 6/2/1 5/3/1 4/4/1
s 1
f 102/5/2 30/6/3 4/7/4 31/8/5
f 7/9/3 46/10/6 38/11/7 3/12/4
f 46/10/6 54/13/8 37/14/9 38/11/7
f 54/13/8 62/15/10 36/16/11 37/14/9
f 62/15/10 70/17/12 35/18/13 36/16/11
f 70/17/12 78/19/14 34/20/15 35/18/13
f 78/19/14 86/21/16 33/22/17 34/20/15
f 86/21/16 94/23/18 32/24/19 33/22/17
f 94/23/18 102/5/2 31/8/5 32/24/19
f 1/25/20 15/26/21 39/27/22 14/28/23
f 14/28/23 39/27/22 40/29/24 13/30/7
f 13/30/7 40/29/24 41/31/25 12/32/26
f 12/32/26 41/31/25 42/33/27 11/34/28
f 11/34/28 42/33/27 43/35/29 10/36/30
f 10/36/30 43/35/29 44/37/31 9/38/32
f 9/38/32 44/37/31 45/39/33 8/40/34
f 8/40/34 45/39/33 46/10/6 7/9/3
f 15/26/21 16/41/35 47/42/36 39/27/22
f 39/27/22 47/42/36 48/43/37 40/29/24
f 40/29/24 48/43/37 49/44/38 41/31/25
f 41/31/25 49/44/38 50/45/39 42/33/27
f 42/33/27 50/45/39 51/46/40 43/35/29
f 43/35/29 51/46/40 52/47/41 44/37/31
f 44/37/31 52/47/41 53/48/42 45/39/33
f 45/39/33 53/48/42 54/13/8 46/10/6
f 16/41/35 17/49/43 55/50/44 47/42/36
f 47/42/36 55/50/44 56/51/45 48/43/37
f 48/43/37 56/51/45 57/52/46 49/44/38
f 49/44/38 57/52/46 58/53/47 50/45/39
f 50/45/39 58/53/47 59/54/48 51/46/40
f 51/46/40 59/54/48 60/55/49 52/47/41
f 52/47/41 60/55/49 61/56/50 53/48/42
f 53/48/42 61/56/50 62/15/10 54/13/8
f 17/49/43 18/57/51 63/58/52 55/50/44
f 55/50/44 63/58/52 64/59/53 56/51/45
f 56/51/45 64/59/53 65/60/54 57/52/46
f 57/52/46 65/60/54 66/61/55 58/53/47
f 58/53/47 66/61/55 67/62/56 59/54/48
f 59/54/48 67/62/56 68/63/57 60/55/49
f 60/55/49 68/63/57 69/64/58 61/56/50
f 61/56/50 69/64/58 70/17/12 62/15/10
f 18/57/51 19/65/59 71/66/60 63/58/52
f 63/58/52 71/66/60 72/67/61 64/59/53
f 64/59/53 72/67/61 73/68/62 65/60/54
f 65/60/54 73/68/62 74/69/63 66/61/55
f 66/61/55 74/69/63 75/70/64 67/62/56
f 67/62/56 75/70/64 76/71/65 68/63/57
f 68/63/57 76/71/65 77/72/66 69/64/58
f 69/64/58 77/72/66 78/19/14 70/17/12
f 19/65/59 20/73/67 79/74/68 71/66/60
f 71/66/60 79/74/68 80/75/69 72/67/61
f 72/67/61 80/75/69 81/76/70 73/68/62
f 73/68/62 81/76/70 82/77/71 74/69/63
f 74/69/63 82/77/71 83/78/72 75/70/64
f 75/70/64 83/78/72 84/79/73 76/71/65
f 76/71/65 84/79/73 85/80/74 77/72/66
f 77/72/66 85/80/74 86/21/16 78/19/14
f 20/73/67 21/81/75 87/82/76 79/74/68
f 79/74/68 87/82/76 88/83/77 80/75/69
f 80/75/69 88/83/77 89/84/78 81/76/70
f 81/76/70 89/84/78 90/85/79 82/77/71
f 82/77/71 90/85/79 91/86/80 83/78/72
f 83/78/72 91/86/80 92/87/81 84/79/73
f 84/79/73 92/87/81 93/88/82 85/80/74
f 85/80/74 93/88/82 94/23/18 86/21/16
f 21/81/75 22/89/83 95/90/84 87/82/76
f 87/82/76 95/90/84 96/91/85 88/83/77
f 88/83/77 96/91/85 97/92/86 89/84/78
f 89/84/78 97/92/86 98/93/87 90/85/79
f 90/85/79 98/93/87 99/94/88 91/86/80
f 91/86/80 99/94/88 100/95/89 92/87/81
f 92/87/81 100/95/89 101/96/90 93/88/82
f 93/88/82 101/96/90 102/5/2 94/23/18
f 22/89/83 2/97/91 23/98/92 95/90/84
f 95/90/84 23/98/92 24/99/34 96/91/85
f 96/91/85 24/99/34 25/100/93 97/92/86
f 97/92/86 25/100/93 26/101/94 98/93/87
f 98/93/87 26/101/94 27/102/95 99/94/88
f 99/94/88 27/102/95 28/103/32 100/95/89
f 100/95/89 28/103/32 29/104/34 101/96/90
f 101/96/90 29/104/34 30/6/3 102/5/2
