# Blender v2.79 (sub 0) OBJ File: ''
# www.blender.org
mtllib Cliff.mtl
o Cliff_Circle
v 0.000000 1.513797 0.000000
v 0.000000 1.513797 -1.000000
v -0.750911 1.514037 -0.780630
v -0.984808 1.513797 -0.173648
v -0.799816 1.510965 0.765449
v -0.342020 1.513797 0.939693
v 0.456677 1.514673 0.847111
v 0.866025 1.513797 0.500000
v 0.984808 1.513797 -0.173648
v 0.862797 1.512797 -0.687508
v -0.324348 1.067049 0.913586
v 0.492576 1.069553 0.753582
v 0.827318 1.068836 0.469734
v 0.919017 1.067278 -0.081137
v -0.702230 1.069024 -0.750993
v -0.913816 1.068362 -0.084772
v 0.000930 1.068791 -0.957521
v 0.812420 1.060207 -0.667105
v -0.765765 1.059998 0.654590
v -0.725757 -0.282327 0.680919
v -0.957487 -0.241208 -0.089500
v -1.111053 -0.960397 -0.084699
v -0.899838 -0.999169 0.718630
v -0.746483 -0.237269 -0.783706
v -0.014645 -0.237913 -0.998908
v -0.053817 -0.953151 -1.052577
v -0.841886 -0.953006 -0.818563
v 0.465466 0.497804 0.751993
v -0.326940 0.489125 0.911647
v -0.313222 -0.254154 0.950795
v 0.477398 -0.240402 0.784070
v 0.801373 -0.258813 -0.696293
v 0.929509 -0.246414 -0.085712
v 1.012014 -0.956226 -0.089158
v 0.907923 -0.958911 -0.730528
v 0.798485 0.495880 0.468766
v 0.808141 -0.245902 0.488298
v 0.878967 0.489566 -0.080899
v 0.746520 0.475517 -0.665583
v -0.726897 0.496973 -0.749288
v -0.027629 0.495919 -0.955364
v -0.386861 -0.979770 0.999175
v 0.511374 -0.975635 0.821325
v -0.746021 0.473999 0.653218
v -0.928382 0.493581 -0.084526
v 0.856050 -0.973807 0.506462
v -0.382506 1.332161 1.091937
v 0.517888 1.333156 0.990241
v 1.000411 1.319525 0.588917
v 1.149334 1.350918 -0.211341
v -0.857521 1.332433 -0.890438
v -1.158186 1.332161 -0.204353
v -0.004426 1.332161 -1.150141
v 0.972128 1.329982 -0.784643
v -0.914095 1.328176 0.859417
v 1.067403 -1.739037 0.588524
v 1.230846 -1.712716 -0.095349
v -0.385852 -1.759115 1.180610
v 0.684763 -1.755098 0.998335
v -0.070050 -1.705084 -1.237657
v -1.025792 -1.707381 -0.900751
v 1.072524 -1.706940 -0.824874
v -1.336685 -1.721722 -0.072631
v -1.136770 -1.750035 0.804346
v 0.925416 1.513797 0.163176
v 1.138668 1.332161 0.237705
v 0.057328 1.514235 0.893402
v 0.053829 1.378328 1.079780
v -0.683723 1.330168 1.005108
v -0.570918 1.512381 0.852571
v -0.892312 1.512381 0.295901
v -1.111593 1.330168 0.332586
v -0.867859 1.513917 -0.477139
v -1.053273 1.332297 -0.563118
v 0.661351 1.514235 0.673556
v 0.773122 1.332658 0.822765
v 0.923802 1.513297 -0.430578
v 1.092189 1.331072 -0.504983
v 0.504823 1.331072 -1.014582
v 0.431399 1.513297 -0.843754
v -0.375455 1.513917 -0.890315
v -0.441455 1.332297 -1.067457
vt 0.240949 0.740071
vt 0.210389 0.913383
vt 0.148670 0.882900
vt 0.086951 0.852417
vt 0.075957 0.796245
vt 0.064963 0.740072
vt 0.095343 0.661520
vt 0.125722 0.582968
vt 0.168056 0.574863
vt 0.210389 0.566759
vt 0.278187 0.586986
vt 0.345984 0.607213
vt 0.376153 0.643547
vt 0.406321 0.679881
vt 0.406321 0.740071
vt 0.406321 0.800262
vt 0.387896 0.842927
vt 0.369472 0.885591
vt 0.289930 0.899487
vt 0.683142 0.482161
vt 0.632475 0.479948
vt 0.581808 0.477734
vt 0.583326 0.418644
vt 0.695744 0.424480
vt 0.834799 0.492021
vt 0.792150 0.489042
vt 0.749502 0.486064
vt 0.754077 0.429116
vt 0.827213 0.433947
vt 0.399293 0.477837
vt 0.358525 0.479640
vt 0.317758 0.481443
vt 0.313220 0.422342
vt 0.408566 0.418338
vt 0.268893 0.483881
vt 0.220028 0.486320
vt 0.215737 0.430049
vt 0.163074 0.490800
vt 0.106121 0.495281
vt 0.106643 0.438526
vt 0.551351 0.478387
vt 0.520895 0.479039
vt 0.512690 0.418923
vt 0.716322 0.484113
vt 0.900581 0.495281
vt 0.867690 0.493651
vt 0.902478 0.438468
vt 0.460094 0.478438
vt 0.520109 0.225891
vt 0.402116 0.233455
vt 0.395644 0.130347
vt 0.510070 0.119737
vt 0.298904 0.242332
vt 0.195614 0.258541
vt 0.181462 0.164225
vt 0.289644 0.142968
vt 0.698743 0.346282
vt 0.584847 0.338537
vt 0.592014 0.231762
vt 0.707212 0.242889
vt 0.927873 0.274779
vt 0.848054 0.260828
vt 0.867312 0.166607
vt 0.949837 0.187926
vt 0.759100 0.351460
vt 0.768610 0.249146
vt 0.833832 0.358134
vt 0.086277 0.278389
vt 0.055379 0.197078
vt 0.910862 0.365708
vt 0.309564 0.344193
vt 0.211353 0.354811
vt 0.591438 0.126542
vt 0.720112 0.139663
vt 0.514679 0.335853
vt 0.406530 0.338803
vt 0.784751 0.149013
vt 0.106878 0.366307
vt 0.511161 0.709766
vt 0.485500 0.624548
vt 0.665425 0.624548
vt 0.669535 0.709766
vt 0.511161 0.709766
vt 0.485500 0.624548
vt 0.665425 0.624548
vt 0.669535 0.709766
vt 0.511161 0.709766
vt 0.485500 0.624548
vt 0.665425 0.624548
vt 0.669534 0.709766
vt 0.511161 0.709766
vt 0.485500 0.624548
vt 0.665425 0.624548
vt 0.669535 0.709766
vt 0.511161 0.709766
vt 0.485500 0.624548
vt 0.665425 0.624548
vt 0.669535 0.709766
vt 0.511161 0.709766
vt 0.485500 0.624548
vt 0.665425 0.624548
vt 0.669535 0.709766
vt 0.511161 0.709766
vt 0.485500 0.624548
vt 0.665425 0.624548
vt 0.669535 0.709766
vt 0.511161 0.709766
vt 0.485500 0.624548
vt 0.665425 0.624548
vt 0.669535 0.709766
vt 0.511161 0.709766
vt 0.485500 0.624548
vt 0.665425 0.624548
vt 0.669535 0.709766
vt 0.809063 0.044265
vt 0.894463 0.067549
vt 0.603949 0.021662
vt 0.739223 0.031665
vt 0.159982 0.068608
vt 0.280858 0.042278
vt 0.014524 0.110110
vt 0.388682 0.026699
vt 0.500109 0.014524
vt 0.985476 0.096015
vt 0.845350 0.624548
vt 0.827908 0.709766
vt 0.845350 0.624548
vt 0.827908 0.709766
vt 0.845350 0.624548
vt 0.827908 0.709766
vt 0.845350 0.624548
vt 0.827908 0.709766
vt 0.845350 0.624548
vt 0.827908 0.709766
vt 0.845350 0.624548
vt 0.827908 0.709766
vt 0.845350 0.624548
vt 0.827908 0.709766
vt 0.845350 0.624548
vt 0.827908 0.709766
vt 0.845350 0.624548
vt 0.827908 0.709766
vn -0.0004 1.0000 0.0000
vn 0.0007 1.0000 0.0000
vn 0.0003 1.0000 0.0000
vn 0.0001 1.0000 0.0002
vn -0.0001 1.0000 0.0004
vn -0.0003 1.0000 0.0017
vn -0.0006 1.0000 0.0031
vn -0.0031 1.0000 0.0004
vn -0.0054 1.0000 -0.0020
vn -0.0037 1.0000 -0.0013
vn -0.0011 1.0000 -0.0004
vn -0.0001 1.0000 -0.0010
vn 0.0009 1.0000 -0.0015
vn 0.0004 1.0000 -0.0008
vn -0.0000 1.0000 -0.0000
vn -0.0002 1.0000 -0.0010
vn -0.0003 1.0000 -0.0019
vn 0.0004 1.0000 -0.0010
vn 0.0012 1.0000 0.0000
vn 0.3886 -0.1200 0.9136
vn 0.1536 -0.1223 0.9805
vn -0.1485 -0.1482 0.9777
vn -0.1540 -0.0805 0.9848
vn 0.4398 -0.0708 0.8953
vn 0.9905 -0.1319 -0.0395
vn 0.9803 -0.1031 0.1686
vn 0.8611 -0.1120 0.4960
vn 0.8694 -0.0813 0.4874
vn 0.9949 -0.1011 -0.0071
vn -0.9834 -0.1517 -0.0998
vn -0.9304 -0.1684 -0.3257
vn -0.6868 -0.1476 -0.7117
vn -0.6861 -0.0631 -0.7248
vn -0.9969 -0.0670 -0.0400
vn -0.2799 -0.0930 -0.9555
vn 0.0289 -0.0932 -0.9952
vn 0.0364 -0.0530 -0.9979
vn 0.3372 -0.0843 -0.9377
vn 0.7555 -0.1351 -0.6411
vn 0.7550 -0.1027 -0.6476
vn -0.4270 -0.1604 0.8899
vn -0.7562 -0.1576 0.6351
vn -0.8124 -0.0817 0.5774
vn 0.6429 -0.1075 0.7584
vn 0.9682 -0.1502 -0.2001
vn -0.9741 -0.1189 0.1925
vn -0.7822 0.1100 0.6133
vn -0.9931 0.1155 -0.0179
vn -0.9676 0.2498 -0.0363
vn -0.7613 0.2416 0.6017
vn -0.6871 0.0983 -0.7199
vn 0.0380 0.0725 -0.9966
vn 0.0148 0.1520 -0.9883
vn -0.6747 0.2038 -0.7094
vn 0.4368 0.0117 0.8995
vn -0.1802 0.0155 0.9835
vn -0.1617 0.0700 0.9843
vn 0.4452 0.0527 0.8939
vn 0.7483 0.1001 -0.6558
vn 0.9961 0.0876 0.0029
vn 0.9804 0.1949 0.0288
vn 0.7434 0.1972 -0.6391
vn 0.8707 -0.0041 0.4918
vn 0.8621 0.0616 0.5029
vn 0.9998 -0.0085 -0.0203
vn 0.7475 0.0069 -0.6643
vn -0.7075 0.0382 -0.7057
vn 0.0274 0.0250 -0.9993
vn -0.1708 0.1764 0.9694
vn 0.4427 0.1697 0.8805
vn -0.8095 0.0056 0.5872
vn -0.9995 0.0199 -0.0262
vn 0.8460 0.1906 0.4979
vn -0.1072 0.7112 0.6948
vn -0.1244 0.7077 0.6955
vn 0.0709 0.7289 0.6809
vn 0.0803 0.7286 0.6802
vn 0.6066 0.7041 0.3691
vn 0.6047 0.7036 0.3732
vn 0.6716 0.7261 0.1478
vn 0.6712 0.7286 0.1368
vn -0.4654 0.7084 -0.5306
vn -0.4722 0.7088 -0.5241
vn -0.6530 0.7072 -0.2711
vn -0.6532 0.7078 -0.2689
vn 0.0308 0.6861 -0.7268
vn 0.0210 0.6863 -0.7270
vn -0.2122 0.6747 -0.7069
vn -0.2096 0.6750 -0.7075
vn 0.5315 0.6903 -0.4910
vn 0.5347 0.6903 -0.4875
vn 0.2611 0.6633 -0.7014
vn 0.2591 0.6636 -0.7018
vn -0.5363 0.7112 0.4544
vn -0.5369 0.7113 0.4536
vn -0.2939 0.6717 0.6801
vn -0.2809 0.6737 0.6835
vn 0.2940 0.7117 0.6380
vn 0.2989 0.7109 0.6366
vn 0.4777 0.6782 0.5584
vn 0.4794 0.6781 0.5572
vn 0.6789 0.7333 -0.0377
vn 0.6799 0.7311 -0.0569
vn 0.6990 0.6834 -0.2104
vn 0.6964 0.6878 -0.2048
vn -0.6756 0.7350 -0.0575
vn -0.6749 0.7347 -0.0686
vn -0.6817 0.7165 0.1477
vn -0.6819 0.7159 0.1499
vn 0.8297 0.2883 0.4779
vn 0.9621 0.2709 0.0325
vn -0.1381 0.2425 0.9603
vn 0.4535 0.2730 0.8484
vn 0.0052 0.2157 -0.9764
vn -0.6899 0.2591 -0.6759
vn 0.7403 0.2632 -0.6187
vn -0.9556 0.2921 -0.0384
vn -0.7610 0.2843 0.5831
usemtl CliffMat
s 1
f 1/1/1 2/2/2 81/3/3 3/4/4
f 1/1/1 3/4/4 73/5/5 4/6/6
f 1/1/1 4/6/6 71/7/7 5/8/8
f 1/1/1 5/8/8 70/9/9 6/10/10
f 1/1/1 6/10/10 67/11/11 7/12/12
f 1/1/1 7/12/12 75/13/13 8/14/14
f 1/1/1 8/14/14 65/15/15 9/16/16
f 1/1/1 9/16/16 77/17/17 10/18/18
f 1/1/1 10/18/18 80/19/19 2/2/2
f 7/20/20 67/21/21 6/22/22 11/23/23 12/24/24
f 9/25/25 65/26/26 8/27/27 13/28/28 14/29/29
f 4/30/30 73/31/31 3/32/32 15/33/33 16/34/34
f 3/32/32 81/35/35 2/36/36 17/37/37 15/33/33
f 2/36/36 80/38/38 10/39/39 18/40/40 17/37/37
f 6/22/22 70/41/41 5/42/42 19/43/43 11/23/23
f 8/27/27 75/44/44 7/20/20 12/24/24 13/28/28
f 10/45/39 77/46/45 9/25/25 14/29/29 18/47/40
f 5/42/42 71/48/46 4/30/30 16/34/34 19/43/43
f 20/49/47 21/50/48 22/51/49 23/52/50
f 24/53/51 25/54/52 26/55/53 27/56/54
f 28/57/55 29/58/56 30/59/57 31/60/58
f 32/61/59 33/62/60 34/63/61 35/64/62
f 36/65/63 28/57/55 31/60/58 37/66/64
f 38/67/65 36/65/63 37/66/64 33/62/60
f 25/54/52 32/68/59 35/69/62 26/55/53
f 39/70/66 38/67/65 33/62/60 32/61/59
f 40/71/67 41/72/68 25/54/52 24/53/51
f 31/60/58 30/59/57 42/73/69 43/74/70
f 44/75/71 45/76/72 21/50/48 20/49/47
f 29/58/56 44/75/71 20/49/47 30/59/57
f 37/66/64 31/60/58 43/74/70 46/77/73
f 30/59/57 20/49/47 23/52/50 42/73/69
f 41/72/68 39/78/66 32/68/59 25/54/52
f 21/50/48 24/53/51 27/56/54 22/51/49
f 45/76/72 40/71/67 24/53/51 21/50/48
f 33/62/60 37/66/64 46/77/73 34/63/61
f 17/37/37 18/40/40 39/78/66 41/72/68
f 14/29/29 13/28/28 36/65/63 38/67/65
f 12/24/24 11/23/23 29/58/56 28/57/55
f 16/34/34 15/33/33 40/71/67 45/76/72
f 19/43/43 16/34/34 45/76/72 44/75/71
f 15/33/33 17/37/37 41/72/68 40/71/67
f 18/47/40 14/29/29 38/67/65 39/70/66
f 13/28/28 12/24/24 28/57/55 36/65/63
f 11/23/23 19/43/43 44/75/71 29/58/56
f 6/79/74 47/80/75 68/81/76 67/82/77
f 8/83/78 49/84/79 66/85/80 65/86/81
f 3/87/82 51/88/83 74/89/84 73/90/85
f 2/91/86 53/92/87 82/93/88 81/94/89
f 10/95/90 54/96/91 79/97/92 80/98/93
f 5/99/94 55/100/95 69/101/96 70/102/97
f 7/103/98 48/104/99 76/105/100 75/106/101
f 9/107/102 50/108/103 78/109/104 77/110/105
f 4/111/106 52/112/107 72/113/108 71/114/109
f 34/63/61 46/77/73 56/115/110 57/116/111
f 43/74/70 42/73/69 58/117/112 59/118/113
f 27/56/54 26/55/53 60/119/114 61/120/115
f 26/55/53 35/69/62 62/121/116 60/119/114
f 22/51/49 27/56/54 61/120/115 63/122/117
f 23/52/50 22/51/49 63/122/117 64/123/118
f 46/77/73 43/74/70 59/118/113 56/115/110
f 35/64/62 34/63/61 57/116/111 62/124/116
f 42/73/69 23/52/50 64/123/118 58/117/112
f 65/86/81 66/85/80 50/125/103 9/126/102
f 67/82/77 68/81/76 48/127/99 7/128/98
f 70/102/97 69/101/96 47/129/75 6/130/74
f 71/114/109 72/113/108 55/131/95 5/132/94
f 73/90/85 74/89/84 52/133/107 4/134/106
f 75/106/101 76/105/100 49/135/79 8/136/78
f 77/110/105 78/109/104 54/137/91 10/138/90
f 80/98/93 79/97/92 53/139/87 2/140/86
f 81/94/89 82/93/88 51/141/83 3/142/82
