# Blender v2.79 (sub 0) OBJ File: 'MP1.blend'
# www.blender.org
mtllib MP1.mtl
o Circle_Circle.001
v 0.000000 0.510279 0.000000
v 0.073825 0.510279 -1.029530
v -0.756440 0.510279 -0.653089
v -1.022398 0.510279 0.222521
v -0.552004 0.510279 0.856674
v 0.374824 0.510279 0.908351
v 1.120166 0.510279 0.281581
v 0.811362 0.510279 -0.630872
v -0.960029 0.125678 0.207386
v -0.483556 0.171940 0.813780
v 0.380535 0.152706 0.818539
v 1.066061 0.113204 0.231372
v 0.062796 0.155432 -0.969711
v -0.670338 0.194001 -0.559827
v 0.772180 0.150127 -0.547800
v -0.778223 -0.303750 0.146391
v -0.394637 -0.240693 0.645682
v 0.273566 -0.265393 0.671922
v 0.807733 -0.321590 0.241076
v 0.043780 -0.229910 -0.803105
v -0.530940 -0.240116 -0.368758
v 0.640391 -0.288415 -0.370358
v -0.484021 -0.556291 0.074568
v -0.245899 -0.551977 0.475424
v 0.134020 -0.544663 0.410160
v 0.404662 -0.604713 0.175117
v 0.021388 -0.528945 -0.449041
v -0.272888 -0.528945 -0.173629
v 0.402825 -0.579933 -0.223717
v -0.004057 -0.770374 -0.007049
v 0.079013 0.423124 -1.109017
v -0.815751 0.423124 -0.703332
v -1.102370 0.423124 0.240300
v -0.595433 0.423124 0.923717
v 0.403394 0.423124 0.979409
v 1.206638 0.423124 0.303948
v 0.873845 0.423124 -0.679389
vt 0.235551 0.778345
vt 0.346187 0.982187
vt 0.141345 0.982187
vt 0.005672 0.827672
vt 0.043096 0.654247
vt 0.227975 0.557674
vt 0.438664 0.616783
vt 0.460132 0.832168
vt 0.869130 0.957969
vt 0.805825 0.976357
vt 0.805825 0.507403
vt 0.869131 0.522820
vt 0.869130 0.957969
vt 0.805825 0.976357
vt 0.805825 0.507403
vt 0.869131 0.522820
vt 0.869130 0.957969
vt 0.805825 0.976357
vt 0.805825 0.507403
vt 0.869131 0.522820
vt 0.869130 0.957969
vt 0.805825 0.976357
vt 0.805825 0.507403
vt 0.869131 0.522820
vt 0.869130 0.957969
vt 0.805825 0.976357
vt 0.805825 0.507403
vt 0.869131 0.522820
vt 0.869130 0.957969
vt 0.805825 0.976357
vt 0.805825 0.507403
vt 0.869131 0.522820
vt 0.869130 0.957969
vt 0.805825 0.976357
vt 0.805825 0.507403
vt 0.869131 0.522820
vt 0.344412 0.559398
vt 0.174827 0.445436
vt 0.244816 0.383241
vt 0.380537 0.480725
vt 0.800814 0.444336
vt 0.582633 0.567598
vt 0.568999 0.477286
vt 0.728098 0.373627
vt 0.065919 0.240433
vt 0.056807 0.000167
vt 0.151844 0.005601
vt 0.149657 0.221764
vt 0.895348 0.218399
vt 0.803479 0.210389
vt 0.802923 0.004537
vt 0.896536 0.000168
vt 0.315087 0.318514
vt 0.405671 0.389060
vt 0.262083 0.028403
vt 0.267203 0.210354
vt 0.533616 0.387098
vt 0.644098 0.323017
vt 0.691893 0.206367
vt 0.691825 0.025385
vt 0.565665 0.272146
vt 0.603836 0.198532
vt 0.368916 0.198349
vt 0.369682 0.269808
vt 0.436751 0.323864
vt 0.506947 0.312599
vt 0.579058 0.087917
vt 0.374251 0.092002
vt 0.475809 0.194731
vn 0.0000 1.0000 0.0000
vn -0.7404 0.6335 -0.2249
vn 0.3658 0.6389 -0.6767
vn 0.7190 0.6510 -0.2433
vn -0.3215 0.6276 -0.7091
vn 0.4940 0.6409 0.5875
vn -0.0436 0.6227 0.7813
vn -0.6094 0.6514 0.4520
vn -0.3718 0.6137 0.6964
vn -0.7793 0.6134 0.1281
vn -0.9311 -0.3335 0.1474
vn -0.4139 -0.2963 0.8607
vn 0.7396 0.6367 0.2181
vn 0.2418 0.6112 0.7536
vn 0.3302 -0.2836 0.9003
vn 0.9216 -0.3244 0.2132
vn -0.5947 0.6068 -0.5273
vn 0.0236 0.6045 -0.7962
vn 0.0108 -0.3546 -0.9349
vn -0.7135 -0.3223 -0.6221
vn 0.5911 0.6216 -0.5139
vn 0.7364 -0.3028 -0.6050
vn -0.8076 -0.5849 0.0752
vn -0.3796 -0.5204 0.7649
vn -0.0242 -0.5885 -0.8081
vn -0.6343 -0.5430 -0.5502
vn 0.2564 -0.5145 0.8182
vn 0.7398 -0.6189 0.2640
vn 0.6411 -0.5919 -0.4884
vn 0.4490 -0.8597 0.2435
vn 0.4430 -0.8231 -0.3553
vn -0.4724 -0.7413 -0.4768
vn -0.5738 -0.8180 -0.0390
vn -0.2393 -0.7781 0.5808
vn 0.1780 -0.7733 0.6085
vn -0.0820 -0.7992 -0.5954
vn -0.0601 -0.9958 -0.0695
usemtl Material.001
s off
f 1/1/1 2/2/1 3/3/1
f 1/1/1 3/3/1 4/4/1
f 1/1/1 4/4/1 5/5/1
f 1/1/1 5/5/1 6/6/1
f 1/1/1 6/6/1 7/7/1
f 1/1/1 7/7/1 8/8/1
f 1/1/1 8/8/1 2/2/1
f 3/9/2 32/10/2 33/11/2 4/12/2
f 8/13/3 37/14/3 31/15/3 2/16/3
f 7/17/4 36/18/4 37/19/4 8/20/4
f 2/21/5 31/22/5 32/23/5 3/24/5
f 6/25/6 35/26/6 36/27/6 7/28/6
f 5/29/7 34/30/7 35/31/7 6/32/7
f 4/33/8 33/34/8 34/35/8 5/36/8
s 1
f 5/37/9 4/38/10 9/39/11 10/40/12
f 7/41/13 6/42/14 11/43/15 12/44/16
f 6/42/14 5/37/9 10/40/12 11/43/15
f 3/45/17 2/46/18 13/47/19 14/48/20
f 3/45/17 14/48/20 9/39/11 4/38/10
f 8/49/21 15/50/22 13/51/19 2/52/18
f 8/49/21 7/41/13 12/44/16 15/50/22
f 10/40/12 9/39/11 16/53/23 17/54/24
f 14/48/20 13/47/19 20/55/25 21/56/26
f 12/44/16 11/43/15 18/57/27 19/58/28
f 13/51/19 15/50/22 22/59/29 20/60/25
f 9/39/11 14/48/20 21/56/26 16/53/23
f 11/43/15 10/40/12 17/54/24 18/57/27
f 15/50/22 12/44/16 19/58/28 22/59/29
f 22/59/29 19/58/28 26/61/30 29/62/31
f 16/53/23 21/56/26 28/63/32 23/64/33
f 18/57/27 17/54/24 24/65/34 25/66/35
f 17/54/24 16/53/23 23/64/33 24/65/34
f 20/60/25 22/59/29 29/62/31 27/67/36
f 21/56/26 20/55/25 27/68/36 28/63/32
f 19/58/28 18/57/27 25/66/35 26/61/30
f 27/67/36 29/62/31 30/69/37
f 28/63/32 27/68/36 30/69/37
f 26/61/30 25/66/35 30/69/37
f 29/62/31 26/61/30 30/69/37
f 23/64/33 28/63/32 30/69/37
f 25/66/35 24/65/34 30/69/37
f 24/65/34 23/64/33 30/69/37
