# Blender v2.79 (sub 0) OBJ File: 'Palm.blend'
# www.blender.org
mtllib Palm.mtl
o Cube_Cube.001
v -1.035687 4.830166 2.922070
v -0.678497 5.127957 2.985463
v -1.075573 5.427118 2.494938
v -0.798982 5.638901 2.276641
v 0.135781 5.412947 1.884943
v -0.304389 5.283733 2.893824
v -0.001494 5.356082 2.594690
v -0.416690 5.653942 2.076974
v -1.266482 4.996542 2.632975
v -1.410362 4.451965 2.798198
v -1.474047 4.497697 2.718729
v -1.536368 4.324390 2.747350
v 1.423489 5.617231 0.802263
v 1.096671 5.901148 1.049535
v 1.495704 5.628637 1.552447
v 1.223292 5.624157 1.886523
v -0.945208 5.841205 0.766346
v 0.729395 5.978824 1.270210
v 0.436866 5.840050 1.522673
v 0.851025 5.542351 2.039874
v 1.655158 5.451704 1.090345
v 1.725585 5.229924 0.543484
v 1.789180 5.184256 0.622842
v 1.823985 5.092706 0.463965
v -0.823239 5.994856 1.258337
v -0.253405 6.137695 0.883885
v 0.045371 6.095649 1.175477
v -0.660572 5.934603 1.648524
v -0.365171 5.744370 1.883185
v 0.226958 5.879374 1.486358
v -0.614769 5.917688 0.544763
v -1.072732 5.576727 0.209408
v -0.981833 5.597464 0.148498
v -1.100186 5.491570 0.037634
v 1.332328 4.555882 2.947673
v 1.243775 5.035034 2.774547
v 0.679745 4.919205 3.159890
v 0.390611 5.169735 2.980548
v 1.092535 5.329865 2.510193
v 0.802805 5.452548 2.232116
v 0.213719 5.318083 2.626813
v 1.003808 4.480638 3.166502
v 1.393750 3.965171 3.096370
v 1.303369 3.944553 3.156933
v 1.394777 3.777193 3.135137
v -0.000000 0.039056 -0.585721
v -0.469099 0.039056 -0.359815
v -0.584957 0.039055 0.147792
v -0.260330 0.039055 0.554860
v 0.260330 0.039056 0.554860
v 0.584957 0.039056 0.147792
v 0.469099 0.039056 -0.359815
v 0.443646 1.317045 0.280402
v 0.197441 1.263299 0.584420
v -0.197441 1.263299 0.584420
v -0.443646 1.317045 0.280402
v -0.355777 1.384063 -0.098701
v 0.000000 1.413889 -0.267418
v 0.355777 1.384063 -0.098701
v 0.314458 2.663297 0.535042
v 0.139947 2.560559 0.728255
v -0.139947 2.560559 0.728255
v -0.314458 2.663297 0.535042
v -0.252176 2.791411 0.294109
v -0.000000 2.848427 0.186883
v 0.252176 2.791411 0.294109
v 0.230417 4.052899 1.028554
v 0.102545 3.952679 1.153722
v -0.102545 3.952679 1.153722
v -0.230417 4.052899 1.028554
v -0.184780 4.177871 0.872473
v 0.000000 4.233488 0.803010
v 0.184780 4.177871 0.872473
v 0.105026 4.970184 1.548497
v 0.046741 4.924503 1.605550
v -0.046741 4.924503 1.605550
v -0.105026 4.970184 1.548497
v -0.084224 5.027147 1.477354
v 0.000000 5.052499 1.445693
v 0.084224 5.027147 1.477354
v -1.035687 4.830166 2.922070
v -0.678497 5.127957 2.985463
v -1.075573 5.427118 2.494938
v -0.798982 5.638901 2.276641
v 0.135781 5.412947 1.884943
v -0.304389 5.283733 2.893824
v -0.001494 5.356082 2.594690
v -0.416690 5.653942 2.076974
v -1.266482 4.996542 2.632975
v -1.410362 4.451965 2.798198
v -1.474047 4.497697 2.718729
v -1.536368 4.324390 2.747350
v 1.423489 5.617231 0.802263
v 1.096671 5.901148 1.049535
v 1.495704 5.628637 1.552447
v 1.223292 5.624157 1.886523
v -0.945208 5.841205 0.766346
v 0.729395 5.978824 1.270210
v 0.436866 5.840050 1.522673
v 0.851025 5.542351 2.039874
v 1.655158 5.451704 1.090345
v 1.725585 5.229924 0.543484
v 1.789180 5.184256 0.622842
v 1.823985 5.092706 0.463965
v -0.823239 5.994856 1.258337
v -0.253405 6.137695 0.883885
v 0.045371 6.095649 1.175477
v -0.660572 5.934603 1.648524
v -0.365171 5.744370 1.883185
v 0.226958 5.879374 1.486358
v -0.614769 5.917688 0.544763
v -1.072732 5.576727 0.209408
v -0.981833 5.597464 0.148498
v -1.100186 5.491570 0.037634
v 1.332328 4.555882 2.947673
v 1.243775 5.035034 2.774547
v 0.679745 4.919205 3.159890
v 0.390611 5.169735 2.980548
v 1.092535 5.329865 2.510193
v 0.802805 5.452548 2.232116
v 0.213719 5.318083 2.626813
v 1.003808 4.480638 3.166502
v 1.393750 3.965171 3.096370
v 1.303369 3.944553 3.156933
v 1.394777 3.777193 3.135137
vt 0.948047 0.457268
vt 0.818852 0.394056
vt 0.945106 0.251221
vt 0.980616 0.268605
vt 0.800697 0.888107
vt 0.568656 0.776345
vt 0.612662 0.634184
vt 0.889299 0.767428
vt 0.618702 0.982712
vt 0.922729 0.622873
vt 0.699536 0.516379
vt 0.987089 0.210427
vt 0.948047 0.457268
vt 0.818852 0.394056
vt 0.945106 0.251221
vt 0.980616 0.268605
vt 0.800697 0.888107
vt 0.568656 0.776345
vt 0.612662 0.634184
vt 0.889299 0.767428
vt 0.922729 0.622873
vt 0.699536 0.516379
vt 0.987089 0.210427
vt 0.948047 0.457268
vt 0.818852 0.394056
vt 0.945106 0.251221
vt 0.980616 0.268605
vt 0.800697 0.888107
vt 0.568656 0.776345
vt 0.612662 0.634184
vt 0.889299 0.767428
vt 0.922729 0.622873
vt 0.699536 0.516379
vt 0.987089 0.210427
vt 0.948047 0.457268
vt 0.818852 0.394056
vt 0.945106 0.251221
vt 0.980616 0.268605
vt 0.800697 0.888107
vt 0.568656 0.776345
vt 0.612662 0.634184
vt 0.889299 0.767428
vt 0.922729 0.622873
vt 0.699536 0.516379
vt 0.987089 0.210427
vt 0.648756 0.026946
vt 0.755079 0.054628
vt 0.682065 0.265992
vt 0.600147 0.241746
vt 0.435434 0.009631
vt 0.542120 0.013901
vt 0.515276 0.224276
vt 0.427073 0.215226
vt 0.219860 0.014842
vt 0.327358 0.009631
vt 0.337037 0.216406
vt 0.248669 0.226299
vt 0.005796 0.058025
vt 0.112576 0.029033
vt 0.163626 0.244760
vt 0.081561 0.270109
vt 0.417569 0.452996
vt 0.349393 0.454239
vt 0.604277 0.499884
vt 0.544362 0.481426
vt 0.222798 0.484495
vt 0.162969 0.503996
vt 0.284088 0.466109
vt 0.482964 0.464005
vt 0.537378 0.745267
vt 0.495537 0.730777
vt 0.318453 0.721525
vt 0.275914 0.733598
vt 0.409853 0.713864
vt 0.363539 0.714489
vt 0.453560 0.719825
vt 0.234603 0.749011
vt 0.337594 0.900324
vt 0.319796 0.910336
vt 0.375692 0.897868
vt 0.356310 0.896720
vt 0.416956 0.902034
vt 0.396305 0.900253
vt 0.456609 0.910731
vt 0.436916 0.904315
vt 0.387742 0.998933
vt 0.948047 0.457268
vt 0.980616 0.268605
vt 0.945106 0.251221
vt 0.818852 0.394056
vt 0.800697 0.888107
vt 0.889299 0.767428
vt 0.612662 0.634184
vt 0.568656 0.776345
vt 0.618702 0.982712
vt 0.922729 0.622873
vt 0.699536 0.516379
vt 0.987089 0.210427
vt 0.948047 0.457268
vt 0.980616 0.268605
vt 0.945106 0.251221
vt 0.818852 0.394056
vt 0.800697 0.888107
vt 0.889299 0.767428
vt 0.612662 0.634184
vt 0.568656 0.776345
vt 0.922729 0.622873
vt 0.699536 0.516379
vt 0.987089 0.210427
vt 0.948047 0.457268
vt 0.980616 0.268605
vt 0.945106 0.251221
vt 0.818852 0.394056
vt 0.800697 0.888107
vt 0.889299 0.767428
vt 0.612662 0.634184
vt 0.568656 0.776345
vt 0.922729 0.622873
vt 0.699536 0.516379
vt 0.987089 0.210427
vt 0.948047 0.457268
vt 0.980616 0.268605
vt 0.945106 0.251221
vt 0.818852 0.394056
vt 0.800697 0.888107
vt 0.889299 0.767428
vt 0.612662 0.634184
vt 0.568656 0.776345
vt 0.922729 0.622873
vt 0.699536 0.516379
vt 0.987089 0.210427
vn -0.5626 0.4310 0.7055
vn -0.5618 0.4319 0.7055
vn -0.6162 0.3603 0.7003
vn 0.2641 0.9123 0.3131
vn 0.2781 0.9119 0.3017
vn 0.0054 0.8659 0.5002
vn 0.0053 0.8658 0.5003
vn 0.4400 0.8844 0.1560
vn -0.3279 0.6730 0.6629
vn -0.3196 0.6797 0.6601
vn -0.6278 0.3413 0.6995
vn 0.6657 0.7367 -0.1188
vn 0.6650 0.7375 -0.1178
vn 0.7203 0.6656 -0.1954
vn -0.1012 0.8251 0.5559
vn -0.0847 0.8327 0.5471
vn 0.1694 0.9089 0.3810
vn 0.1695 0.9089 0.3809
vn -0.2685 0.7261 0.6330
vn 0.4674 0.8764 0.1161
vn 0.4608 0.8789 0.1228
vn 0.7313 0.6479 -0.2132
vn -0.3790 0.8910 -0.2500
vn -0.4147 0.8489 -0.3278
vn -0.4147 0.8489 -0.3277
vn 0.2291 0.7648 0.6022
vn 0.2278 0.7664 0.6007
vn 0.0282 0.9298 0.3669
vn 0.0282 0.9299 0.3669
vn 0.3687 0.5612 0.7410
vn -0.2114 0.9768 0.0350
vn -0.2099 0.9770 0.0372
vn -0.4235 0.8367 -0.3471
vn 0.4787 0.3221 0.8167
vn 0.4782 0.3240 0.8163
vn 0.5051 0.2256 0.8330
vn 0.5052 0.2254 0.8331
vn -0.0278 0.9582 0.2849
vn -0.0271 0.9579 0.2859
vn 0.1537 0.8467 0.5093
vn 0.1538 0.8466 0.5094
vn -0.1308 0.9816 0.1393
vn 0.3638 0.5845 0.7253
vn 0.3566 0.5970 0.7187
vn 0.5202 0.1752 0.8359
vn 0.7563 0.1861 -0.6272
vn -0.0000 0.2272 -0.9738
vn -0.0000 0.2636 -0.9646
vn 0.7705 0.2037 -0.6040
vn 0.4458 0.0002 0.8951
vn 0.9769 0.0868 0.1954
vn 0.9715 0.0675 0.2273
vn 0.4326 -0.0408 0.9007
vn -0.9769 0.0868 0.1954
vn -0.4458 0.0002 0.8951
vn -0.4326 -0.0408 0.9007
vn -0.9715 0.0675 0.2273
vn -0.7563 0.1861 -0.6272
vn -0.7705 0.2037 -0.6040
vn 0.4331 -0.1641 0.8863
vn -0.4331 -0.1641 0.8863
vn -0.0000 0.3559 -0.9345
vn 0.7702 0.2493 -0.5871
vn -0.7702 0.2493 -0.5871
vn -0.9743 0.0136 0.2250
vn 0.9743 0.0136 0.2250
vn -0.0000 0.5192 -0.8546
vn 0.7711 0.3536 -0.5295
vn -0.9738 -0.0160 0.2268
vn -0.7711 0.3536 -0.5295
vn 0.4339 -0.3040 0.8481
vn -0.4339 -0.3040 0.8481
vn 0.9738 -0.0160 0.2268
vn -0.7651 0.5377 -0.3541
vn -0.0285 0.7017 -0.7119
vn -0.4485 -0.3334 0.8293
vn -0.9460 0.0882 0.3120
vn 0.9766 -0.0906 0.1949
vn 0.4118 -0.4326 0.8020
vn 0.7579 0.4303 -0.4904
vn 0.2305 0.7490 0.6212
vn 0.5626 -0.4310 -0.7055
vn 0.6162 -0.3603 -0.7003
vn 0.5618 -0.4319 -0.7055
vn -0.2641 -0.9123 -0.3131
vn -0.0053 -0.8658 -0.5003
vn -0.0054 -0.8659 -0.5002
vn -0.2781 -0.9119 -0.3017
vn -0.4400 -0.8844 -0.1560
vn 0.3279 -0.6730 -0.6629
vn 0.3196 -0.6797 -0.6601
vn 0.6278 -0.3413 -0.6995
vn -0.6657 -0.7367 0.1188
vn -0.7203 -0.6656 0.1954
vn -0.6650 -0.7375 0.1178
vn 0.1012 -0.8251 -0.5559
vn -0.1695 -0.9089 -0.3809
vn -0.1694 -0.9089 -0.3810
vn 0.0847 -0.8327 -0.5471
vn 0.2685 -0.7261 -0.6330
vn -0.4674 -0.8764 -0.1161
vn -0.4608 -0.8789 -0.1228
vn -0.7313 -0.6479 0.2132
vn 0.3790 -0.8910 0.2500
vn 0.4147 -0.8489 0.3277
vn 0.4147 -0.8489 0.3278
vn -0.2291 -0.7648 -0.6022
vn -0.0282 -0.9299 -0.3669
vn -0.0282 -0.9298 -0.3669
vn -0.2278 -0.7664 -0.6007
vn -0.3687 -0.5612 -0.7410
vn 0.2114 -0.9768 -0.0350
vn 0.2099 -0.9770 -0.0372
vn 0.4235 -0.8367 0.3471
vn -0.4787 -0.3221 -0.8167
vn -0.5052 -0.2254 -0.8331
vn -0.5051 -0.2256 -0.8330
vn -0.4782 -0.3240 -0.8163
vn 0.0278 -0.9582 -0.2849
vn -0.1538 -0.8466 -0.5094
vn -0.1537 -0.8467 -0.5093
vn 0.0271 -0.9579 -0.2859
vn 0.1308 -0.9816 -0.1393
vn -0.3638 -0.5845 -0.7253
vn -0.3566 -0.5970 -0.7187
vn -0.5202 -0.1752 -0.8359
usemtl Mat
s 1
f 1/1/1 9/2/2 11/3/3 10/4/3
f 7/5/4 8/6/5 4/7/6 6/8/7
f 8/6/5 7/5/4 5/9/8
f 2/10/9 3/11/10 9/2/2 1/1/1
f 10/4/3 11/3/3 12/12/11
f 6/8/7 4/7/6 3/11/10 2/10/9
f 13/13/12 21/14/13 23/15/14 22/16/14
f 19/17/15 20/18/16 16/19/17 18/20/18
f 20/18/16 19/17/15 5/9/19
f 14/21/20 15/22/21 21/14/13 13/13/12
f 22/16/14 23/15/14 24/23/22
f 18/20/18 16/19/17 15/22/21 14/21/20
f 17/24/23 31/25/23 33/26/24 32/27/25
f 29/28/26 30/29/27 27/30/28 28/31/29
f 30/29/27 29/28/26 5/9/30
f 25/32/31 26/33/32 31/25/23 17/24/23
f 32/27/25 33/26/24 34/34/33
f 28/31/29 27/30/28 26/33/32 25/32/31
f 35/35/34 42/36/35 44/37/36 43/38/37
f 40/39/38 41/40/39 38/41/40 39/42/41
f 41/40/39 40/39/38 5/9/42
f 36/43/43 37/44/44 42/36/35 35/35/34
f 43/38/37 44/37/36 45/45/45
f 39/42/41 38/41/40 37/44/44 36/43/43
f 52/46/46 46/47/47 58/48/48 59/49/49
f 50/50/50 51/51/51 53/52/52 54/53/53
f 48/54/54 49/55/55 55/56/56 56/57/57
f 46/58/47 47/59/58 57/60/59 58/61/48
f 51/51/51 52/46/46 59/49/49 53/52/52
f 49/55/55 50/50/50 54/53/53 55/56/56
f 47/59/58 48/54/54 56/57/57 57/60/59
f 55/56/56 54/53/53 61/62/60 62/63/61
f 59/49/49 58/48/48 65/64/62 66/65/63
f 58/61/48 57/60/59 64/66/64 65/67/62
f 56/57/57 55/56/56 62/63/61 63/68/65
f 54/53/53 53/52/52 60/69/66 61/62/60
f 53/52/52 59/49/49 66/65/63 60/69/66
f 57/60/59 56/57/57 63/68/65 64/66/64
f 66/65/63 65/64/62 72/70/67 73/71/68
f 64/66/64 63/68/65 70/72/69 71/73/70
f 62/63/61 61/62/60 68/74/71 69/75/72
f 60/69/66 66/65/63 73/71/68 67/76/73
f 65/67/62 64/66/64 71/73/70 72/77/67
f 63/68/65 62/63/61 69/75/72 70/72/69
f 61/62/60 60/69/66 67/76/73 68/74/71
f 72/77/67 71/73/70 78/78/74 79/79/75
f 70/72/69 69/75/72 76/80/76 77/81/77
f 68/74/71 67/76/73 74/82/78 75/83/79
f 73/71/68 72/70/67 79/84/75 80/85/80
f 71/73/70 70/72/69 77/81/77 78/78/74
f 69/75/72 68/74/71 75/83/79 76/80/76
f 67/76/73 73/71/68 80/85/80 74/82/78
f 78/78/74 77/81/77 5/86/81
f 76/80/76 75/83/79 5/86/81
f 74/82/78 80/85/80 5/86/81
f 79/79/75 78/78/74 5/86/81
f 77/81/77 76/80/76 5/86/81
f 75/83/79 74/82/78 5/86/81
f 80/85/80 79/84/75 5/86/81
f 81/87/82 90/88/83 91/89/83 89/90/84
f 87/91/85 86/92/86 84/93/87 88/94/88
f 88/94/88 85/95/89 87/91/85
f 82/96/90 81/87/82 89/90/84 83/97/91
f 90/88/83 92/98/92 91/89/83
f 86/92/86 82/96/90 83/97/91 84/93/87
f 93/99/93 102/100/94 103/101/94 101/102/95
f 99/103/96 98/104/97 96/105/98 100/106/99
f 100/106/99 85/95/100 99/103/96
f 94/107/101 93/99/93 101/102/95 95/108/102
f 102/100/94 104/109/103 103/101/94
f 98/104/97 94/107/101 95/108/102 96/105/98
f 97/110/104 112/111/105 113/112/106 111/113/104
f 109/114/107 108/115/108 107/116/109 110/117/110
f 110/117/110 85/95/111 109/114/107
f 105/118/112 97/110/104 111/113/104 106/119/113
f 112/111/105 114/120/114 113/112/106
f 108/115/108 105/118/112 106/119/113 107/116/109
f 115/121/115 123/122/116 124/123/117 122/124/118
f 120/125/119 119/126/120 118/127/121 121/128/122
f 121/128/122 85/95/123 120/125/119
f 116/129/124 115/121/115 122/124/118 117/130/125
f 123/122/116 125/131/126 124/123/117
f 119/126/120 116/129/124 117/130/125 118/127/121
