# Blender v2.79 (sub 0) OBJ File: ''
# www.blender.org
mtllib LeafDecor1.mtl
o Plane
v 0.000000 0.000000 0.000000
v -0.200000 0.250104 0.400000
v 0.200000 0.250104 0.400000
v 0.400000 0.250104 0.200000
v 0.400000 0.250104 -0.200000
v 0.200000 0.250104 -0.400000
v -0.200000 0.250104 -0.400000
v -0.400000 0.250104 -0.200000
v -0.400000 0.250104 0.200000
v 0.328239 0.324209 -0.656479
v -0.328239 0.324209 -0.656479
v -0.656479 0.324209 -0.328239
v -0.656479 0.324209 0.328239
v 0.656479 0.324209 0.328239
v 0.656479 0.324209 -0.328239
v -0.328239 0.324209 0.656479
v 0.328239 0.324209 0.656479
v 0.359704 0.278569 -0.832939
v -0.359704 0.278569 -0.832939
v -0.359704 0.278568 0.832939
v 0.359704 0.278568 0.832939
v -0.832939 0.278568 -0.359704
v -0.832939 0.278568 0.359704
v 0.832939 0.278568 0.359704
v 0.832939 0.278568 -0.359704
v 1.019846 0.152896 0.169992
v 1.019846 0.152896 -0.169992
v 0.169992 0.152897 -1.019846
v -0.169992 0.152897 -1.019846
v -0.169992 0.152896 1.019846
v 0.169992 0.152896 1.019846
v -1.019846 0.152896 -0.169992
v -1.019846 0.152896 0.169992
v 0.000000 0.047109 1.177578
v -1.177578 0.047109 0.000000
v 1.177578 0.047109 0.000000
v 0.000000 0.047109 -1.177578
vt 0.018000 0.971500
vt 0.028800 0.971500
vt 0.028800 0.982300
vt 0.028800 0.971500
vt 0.028800 0.982300
vt 0.028800 0.971500
vt 0.028800 0.982300
vt 0.028800 0.971500
vt 0.028800 0.982300
vt 0.018000 0.971500
vt 0.028800 0.982300
vt 0.018000 0.982300
vt 0.018000 0.971500
vt 0.028800 0.982300
vt 0.018000 0.982300
vt 0.018000 0.971500
vt 0.028800 0.982300
vt 0.018000 0.982300
vt 0.018000 0.971500
vt 0.028800 0.982300
vt 0.018000 0.982300
vt 0.018000 0.971500
vt 0.028800 0.971500
vt 0.028800 0.982300
vt 0.018000 0.982300
vt 0.018000 0.971500
vt 0.028800 0.971500
vt 0.028800 0.982300
vt 0.018000 0.982300
vt 0.018000 0.971500
vt 0.028800 0.971500
vt 0.028800 0.982300
vt 0.018000 0.982300
vt 0.018000 0.971500
vt 0.028800 0.971500
vt 0.028800 0.982300
vt 0.018000 0.982300
vt 0.018000 0.971500
vt 0.028800 0.971500
vt 0.028800 0.982300
vt 0.018000 0.982300
vt 0.018000 0.971500
vt 0.028800 0.971500
vt 0.028800 0.982300
vt 0.018000 0.982300
vt 0.018000 0.971500
vt 0.028800 0.971500
vt 0.028800 0.982300
vt 0.018000 0.982300
vt 0.018000 0.971500
vt 0.028800 0.971500
vt 0.028800 0.982300
vt 0.018000 0.982300
vt 0.018000 0.971500
vt 0.028800 0.971500
vt 0.028800 0.982300
vt 0.018000 0.971500
vt 0.028800 0.971500
vt 0.028800 0.982300
vt 0.018000 0.971500
vt 0.028800 0.971500
vt 0.028800 0.982300
vt 0.018000 0.971500
vt 0.028800 0.971500
vt 0.028800 0.982300
vn -0.0000 1.0000 -0.0000
vn 0.0000 0.9276 -0.3736
vn -0.3736 0.9276 0.0000
vn 0.0000 0.9276 0.3736
vn 0.3736 0.9276 0.0000
vn 0.0000 0.9990 -0.0450
vn -0.0450 0.9990 0.0000
vn 0.0450 0.9990 0.0000
vn 0.0000 0.9990 0.0450
vn 0.0000 0.9277 -0.3734
vn 0.0000 0.9277 0.3734
vn -0.3734 0.9277 0.0000
vn 0.3734 0.9277 0.0000
vn 0.5577 0.8300 0.0000
vn 0.0000 0.8300 -0.5577
vn 0.0000 0.8300 0.5577
vn -0.5577 0.8300 0.0000
vn 0.0000 0.8305 0.5570
vn -0.5570 0.8305 0.0000
vn 0.5570 0.8305 0.0000
vn 0.0000 0.8305 -0.5570
usemtl None
s 1
f 1/1/1 2/2/2 3/3/2
f 1/1/1 4/4/3 5/5/3
f 1/1/1 6/6/4 7/7/4
f 1/1/1 8/8/5 9/9/5
f 7/10/4 6/6/4 10/11/6 11/12/6
f 9/13/5 8/8/5 12/14/7 13/15/7
f 5/16/3 4/4/3 14/17/8 15/18/8
f 3/19/2 2/2/2 16/20/9 17/21/9
f 11/22/6 10/23/6 18/24/10 19/25/10
f 17/26/9 16/27/9 20/28/11 21/29/11
f 13/30/7 12/31/7 22/32/12 23/33/12
f 15/34/8 14/35/8 24/36/13 25/37/13
f 25/38/13 24/39/13 26/40/14 27/41/14
f 19/42/10 18/43/10 28/44/15 29/45/15
f 21/46/11 20/47/11 30/48/16 31/49/16
f 23/50/12 22/51/12 32/52/17 33/53/17
f 31/54/16 30/55/16 34/56/18
f 33/57/17 32/58/17 35/59/19
f 27/60/14 26/61/14 36/62/20
f 29/63/15 28/64/15 37/65/21
